<svg width="506" height="672" viewBox="0 0 506 672" fill="none" xmlns="http://www.w3.org/2000/svg">
<g opacity="0.5">
<mask id="mask0_94_5712" style="mask-type:alpha" maskUnits="userSpaceOnUse" x="0" y="0" width="506" height="672">
<path d="M0 0H506V624C506 650.51 484.51 672 458 672H0V0Z" fill="#147949"/>
</mask>
<g mask="url(#mask0_94_5712)">
<g clip-path="url(#clip0_94_5712)">
<path d="M456.118 346.831L450.358 348.374C449.565 348.587 448.925 348.367 448.437 347.715C447.949 347.063 447.911 346.38 448.324 345.665L462.601 320.936C463.105 320.063 463.848 319.495 464.828 319.232C465.809 318.969 466.736 319.09 467.61 319.594L493.013 334.261C493.886 334.765 494.454 335.508 494.717 336.489C494.98 337.469 494.859 338.397 494.355 339.27L483.355 358.322C482.851 359.196 482.108 359.764 481.128 360.026C480.147 360.289 479.22 360.169 478.346 359.664L456.118 346.831ZM461.373 341.397L470.899 346.897C471.349 347.157 471.814 347.222 472.294 347.094C472.774 346.965 473.144 346.676 473.403 346.226C473.663 345.776 473.729 345.311 473.6 344.831C473.471 344.351 473.182 343.981 472.732 343.721L463.206 338.221C462.756 337.962 462.291 337.896 461.811 338.025C461.331 338.153 460.961 338.443 460.702 338.892C460.442 339.342 460.376 339.807 460.505 340.287C460.634 340.767 460.923 341.137 461.373 341.397ZM464.123 336.634L480 345.8C480.45 346.06 480.915 346.126 481.395 345.997C481.875 345.868 482.245 345.579 482.504 345.129C482.764 344.68 482.83 344.215 482.701 343.735C482.572 343.255 482.283 342.885 481.833 342.625L465.956 333.458C465.506 333.199 465.041 333.133 464.561 333.262C464.081 333.39 463.711 333.68 463.452 334.129C463.192 334.579 463.126 335.044 463.255 335.524C463.384 336.004 463.673 336.374 464.123 336.634ZM466.873 331.871L482.75 341.037C483.2 341.297 483.665 341.363 484.145 341.234C484.625 341.105 484.995 340.816 485.254 340.366C485.514 339.916 485.58 339.451 485.451 338.971C485.322 338.491 485.033 338.122 484.583 337.862L468.706 328.695C468.256 328.435 467.791 328.37 467.311 328.499C466.831 328.627 466.461 328.916 466.202 329.366C465.942 329.816 465.876 330.281 466.005 330.761C466.134 331.241 466.423 331.611 466.873 331.871Z" fill="#8CA5FF" fill-opacity="0.25"/>
</g>
<g clip-path="url(#clip1_94_5712)">
<path d="M431.78 385.441C431.33 385.181 431.047 384.815 430.932 384.343C430.817 383.871 430.889 383.409 431.149 382.96C431.408 382.51 431.778 382.22 432.258 382.092C432.738 381.963 433.203 382.029 433.653 382.289L455.921 395.145C456.37 395.405 456.653 395.771 456.768 396.243C456.884 396.715 456.812 397.176 456.552 397.626C456.292 398.076 455.922 398.365 455.442 398.494C454.962 398.623 454.497 398.557 454.048 398.297L431.78 385.441ZM428.113 391.792C427.663 391.532 427.381 391.166 427.265 390.694C427.15 390.221 427.222 389.76 427.482 389.31C427.742 388.861 428.111 388.571 428.591 388.443C429.071 388.314 429.536 388.38 429.986 388.639L452.254 401.496C452.704 401.755 452.986 402.121 453.102 402.594C453.217 403.066 453.145 403.527 452.885 403.977C452.626 404.427 452.256 404.716 451.776 404.845C451.296 404.973 450.831 404.908 450.381 404.648L428.113 391.792ZM435.447 379.09C434.997 378.83 434.714 378.464 434.599 377.992C434.483 377.52 434.556 377.059 434.815 376.609C435.075 376.159 435.445 375.87 435.925 375.741C436.405 375.612 436.87 375.678 437.32 375.938L459.587 388.794C460.037 389.054 460.32 389.42 460.435 389.892C460.551 390.364 460.478 390.826 460.219 391.275C459.959 391.725 459.589 392.014 459.109 392.143C458.629 392.272 458.164 392.206 457.714 391.946L435.447 379.09ZM439.113 372.739C438.663 372.48 438.381 372.114 438.265 371.641C438.15 371.169 438.222 370.708 438.482 370.258C438.742 369.808 439.111 369.519 439.591 369.39C440.071 369.262 440.536 369.327 440.986 369.587L463.254 382.443C463.704 382.703 463.986 383.069 464.102 383.541C464.217 384.014 464.145 384.475 463.885 384.925C463.626 385.374 463.256 385.664 462.776 385.792C462.296 385.921 461.831 385.855 461.381 385.596L439.113 372.739Z" fill="#8CA5FF" fill-opacity="0.25"/>
</g>
<g clip-path="url(#clip2_94_5712)">
<path d="M495.204 421.159C494.956 420.734 494.905 420.272 495.051 419.774C495.197 419.276 495.483 418.903 495.908 418.655C496.262 418.471 496.593 418.248 496.903 417.986C497.214 417.724 497.494 417.436 497.746 417.123C498.111 416.734 498.53 416.482 499.003 416.367C499.475 416.251 499.936 416.323 500.386 416.583C500.836 416.843 501.115 417.215 501.222 417.701C501.33 418.187 501.228 418.639 500.915 419.058C500.484 419.621 500.002 420.136 499.467 420.604C498.933 421.072 498.354 421.478 497.731 421.824C497.305 422.072 496.84 422.13 496.334 421.997C495.829 421.864 495.452 421.585 495.204 421.159ZM493.428 411.401L490.928 402.073C490.805 401.614 490.775 401.146 490.838 400.671C490.901 400.196 491.054 399.746 491.299 399.323L491.597 398.807C492.361 397.484 493.473 396.626 494.934 396.235C496.395 395.844 497.787 396.03 499.11 396.794C500.433 397.558 501.29 398.67 501.682 400.131C502.073 401.592 501.887 402.984 501.123 404.307L496.792 411.809C496.379 412.523 495.769 412.832 494.96 412.736C494.151 412.639 493.641 412.195 493.428 411.401ZM481.022 424.456L482.947 421.122C480.696 419.399 479.2 417.177 478.46 414.456C477.72 411.735 477.875 409.037 478.925 406.363C479.132 405.882 479.473 405.567 479.947 405.418C480.422 405.268 480.884 405.323 481.334 405.583C481.783 405.843 482.073 406.213 482.201 406.693C482.33 407.173 482.317 407.668 482.163 408.179C481.464 410.245 481.505 412.298 482.287 414.336C483.068 416.375 484.398 417.937 486.276 419.022C487.176 419.541 488.11 419.895 489.077 420.083C490.045 420.271 491.004 420.305 491.956 420.184L492.913 423.753C491.794 423.918 490.659 423.943 489.51 423.826C488.36 423.709 487.231 423.418 486.123 422.955L484.198 426.289C483.938 426.739 483.568 427.028 483.088 427.157C482.608 427.285 482.143 427.22 481.693 426.96C481.243 426.7 480.954 426.331 480.825 425.851C480.697 425.371 480.762 424.906 481.022 424.456ZM492.141 434.897L480.733 392.323C480.61 391.864 480.678 391.409 480.938 390.96C481.198 390.51 481.557 390.223 482.016 390.1C482.476 389.977 482.93 390.046 483.38 390.305C483.83 390.565 484.116 390.924 484.239 391.384L495.647 433.958C495.77 434.417 495.702 434.872 495.442 435.321C495.182 435.771 494.823 436.058 494.364 436.181C493.905 436.304 493.45 436.235 493 435.976C492.55 435.716 492.264 435.357 492.141 434.897Z" fill="#ADBFFF" fill-opacity="0.15"/>
</g>
<path d="M374.038 408.999C372.714 408.235 371.857 407.123 371.466 405.662C371.074 404.201 371.261 402.809 372.024 401.486L377.524 391.96C378.288 390.637 379.401 389.779 380.862 389.388C382.322 388.996 383.714 389.183 385.038 389.947C386.361 390.71 387.218 391.823 387.609 393.284C388.001 394.745 387.815 396.137 387.051 397.46L381.551 406.986C380.787 408.309 379.674 409.166 378.214 409.558C376.753 409.949 375.361 409.763 374.038 408.999ZM366.95 417.609L368.852 414.314C366.616 412.565 365.128 410.329 364.388 407.609C363.648 404.888 363.803 402.19 364.853 399.515C365.06 399.035 365.4 398.72 365.875 398.571C366.349 398.421 366.811 398.476 367.261 398.736C367.711 398.996 368 399.366 368.129 399.846C368.258 400.326 368.245 400.821 368.091 401.332C367.392 403.398 367.433 405.451 368.214 407.489C368.995 409.528 370.325 411.09 372.204 412.175C374.11 413.275 376.137 413.643 378.288 413.279C380.438 412.915 382.226 411.927 383.651 410.315C384.016 409.927 384.439 409.668 384.919 409.539C385.399 409.411 385.864 409.476 386.314 409.736C386.764 409.996 387.043 410.368 387.15 410.854C387.258 411.34 387.156 411.792 386.843 412.211C385.082 414.405 382.838 415.879 380.109 416.633C377.381 417.386 374.687 417.224 372.027 416.148L370.125 419.442C369.866 419.892 369.496 420.181 369.016 420.31C368.536 420.438 368.071 420.373 367.621 420.113C367.171 419.853 366.882 419.483 366.753 419.003C366.625 418.523 366.69 418.059 366.95 417.609Z" fill="#ADBFFF" fill-opacity="0.15"/>
<path d="M412.568 444.476C410.756 443.429 409.252 442.102 408.055 440.495C406.858 438.887 406.011 437.153 405.513 435.294C405.014 433.434 404.881 431.509 405.114 429.518C405.346 427.528 405.986 425.626 407.032 423.814C408.078 422.002 409.405 420.498 411.013 419.302C412.62 418.105 414.354 417.257 416.214 416.759C418.073 416.261 419.998 416.128 421.989 416.36C423.98 416.593 425.881 417.232 427.693 418.278C429.505 419.324 431.009 420.651 432.206 422.259C433.402 423.867 434.25 425.601 434.748 427.46C435.246 429.32 435.379 431.245 435.147 433.235C434.914 435.226 434.275 437.127 433.229 438.939C432.183 440.751 430.856 442.256 429.248 443.452C427.64 444.649 425.907 445.496 424.047 445.995C422.188 446.493 420.263 446.626 418.272 446.393C416.281 446.161 414.38 445.522 412.568 444.476ZM414.08 441.856C417.006 443.545 420.07 443.96 423.272 443.102C426.475 442.244 428.92 440.352 430.609 437.427C432.298 434.502 432.714 431.438 431.856 428.235C430.997 425.033 429.106 422.587 426.18 420.898C423.255 419.209 420.191 418.794 416.989 419.652C413.786 420.51 411.34 422.402 409.651 425.327C407.963 428.252 407.547 431.316 408.405 434.519C409.263 437.721 411.155 440.167 414.08 441.856ZM414.08 441.856C411.155 440.167 409.263 437.721 408.405 434.519C407.547 431.316 407.963 428.252 409.651 425.327C411.34 422.402 413.786 420.51 416.989 419.652C420.191 418.794 423.255 419.209 426.18 420.898C429.106 422.587 430.997 425.033 431.856 428.235C432.714 431.438 432.298 434.502 430.609 437.427C428.92 440.352 426.475 442.244 423.272 443.102C420.07 443.96 417.006 443.545 414.08 441.856Z" fill="#ADBFFF" fill-opacity="0.15"/>
<g clip-path="url(#clip3_94_5712)">
<path d="M449.364 460.956L443.604 462.5C442.811 462.712 442.17 462.493 441.682 461.84C441.194 461.188 441.157 460.505 441.569 459.79L455.846 435.062C456.35 434.189 457.093 433.621 458.074 433.358C459.055 433.095 459.982 433.216 460.855 433.72L486.258 448.386C487.132 448.891 487.7 449.633 487.962 450.614C488.225 451.595 488.105 452.522 487.6 453.395L476.6 472.448C476.096 473.321 475.354 473.889 474.373 474.152C473.392 474.415 472.465 474.294 471.592 473.79L449.364 460.956ZM454.618 455.522L464.144 461.022C464.594 461.282 465.059 461.348 465.539 461.219C466.019 461.09 466.389 460.801 466.649 460.351C466.908 459.901 466.974 459.436 466.845 458.956C466.717 458.476 466.427 458.107 465.978 457.847L456.451 452.347C456.001 452.087 455.537 452.022 455.057 452.15C454.577 452.279 454.207 452.568 453.947 453.018C453.687 453.468 453.622 453.933 453.75 454.413C453.879 454.893 454.168 455.263 454.618 455.522ZM457.368 450.759L473.245 459.926C473.695 460.185 474.16 460.251 474.64 460.122C475.12 459.994 475.49 459.705 475.75 459.255C476.009 458.805 476.075 458.34 475.946 457.86C475.818 457.38 475.528 457.01 475.078 456.75L459.201 447.584C458.751 447.324 458.287 447.258 457.807 447.387C457.327 447.516 456.957 447.805 456.697 448.255C456.437 448.705 456.372 449.17 456.5 449.65C456.629 450.13 456.918 450.499 457.368 450.759ZM460.118 445.996L475.995 455.163C476.445 455.422 476.91 455.488 477.39 455.359C477.87 455.231 478.24 454.941 478.5 454.492C478.759 454.042 478.825 453.577 478.696 453.097C478.568 452.617 478.278 452.247 477.828 451.987L461.951 442.821C461.501 442.561 461.037 442.495 460.557 442.624C460.077 442.752 459.707 443.042 459.447 443.492C459.187 443.941 459.122 444.406 459.25 444.886C459.379 445.366 459.668 445.736 460.118 445.996Z" fill="#8CA5FF" fill-opacity="0.25"/>
</g>
<g clip-path="url(#clip4_94_5712)">
<path d="M513.91 490.972C513.662 490.546 513.611 490.085 513.757 489.587C513.903 489.089 514.189 488.716 514.615 488.468C514.968 488.284 515.3 488.061 515.61 487.799C515.92 487.537 516.201 487.249 516.452 486.935C516.818 486.547 517.237 486.295 517.709 486.179C518.181 486.064 518.642 486.136 519.092 486.396C519.542 486.655 519.821 487.028 519.929 487.514C520.036 487.999 519.934 488.452 519.621 488.871C519.191 489.434 518.708 489.949 518.173 490.417C517.639 490.884 517.06 491.291 516.437 491.637C516.011 491.885 515.546 491.943 515.04 491.81C514.535 491.677 514.158 491.397 513.91 490.972ZM512.134 481.214L509.635 471.885C509.512 471.426 509.481 470.959 509.544 470.484C509.607 470.008 509.761 469.559 510.005 469.135L510.303 468.619C511.067 467.296 512.179 466.439 513.64 466.048C515.101 465.656 516.493 465.842 517.816 466.606C519.139 467.37 519.996 468.483 520.388 469.943C520.779 471.404 520.593 472.796 519.829 474.119L515.498 481.621C515.085 482.336 514.475 482.645 513.666 482.548C512.857 482.452 512.347 482.007 512.134 481.214ZM499.728 494.268L501.653 490.934C499.402 489.211 497.907 486.989 497.166 484.269C496.426 481.548 496.581 478.85 497.632 476.175C497.838 475.695 498.179 475.38 498.653 475.23C499.128 475.081 499.59 475.136 500.04 475.396C500.49 475.655 500.779 476.025 500.907 476.505C501.036 476.985 501.023 477.481 500.87 477.992C500.171 480.058 500.212 482.11 500.993 484.149C501.774 486.188 503.104 487.75 504.983 488.834C505.882 489.354 506.816 489.707 507.784 489.896C508.751 490.084 509.711 490.117 510.663 489.997L511.619 493.565C510.5 493.731 509.366 493.755 508.216 493.638C507.066 493.521 505.937 493.231 504.829 492.768L502.904 496.102C502.644 496.552 502.274 496.841 501.794 496.969C501.314 497.098 500.849 497.033 500.399 496.773C499.95 496.513 499.66 496.143 499.532 495.663C499.403 495.183 499.469 494.718 499.728 494.268ZM510.847 504.71L499.439 462.136C499.316 461.676 499.385 461.222 499.644 460.772C499.904 460.322 500.264 460.036 500.723 459.913C501.182 459.79 501.636 459.858 502.086 460.118C502.536 460.378 502.822 460.737 502.945 461.196L514.353 503.771C514.476 504.23 514.408 504.684 514.148 505.134C513.889 505.584 513.529 505.87 513.07 505.993C512.611 506.116 512.156 506.048 511.706 505.788C511.257 505.529 510.97 505.169 510.847 504.71Z" fill="#ADBFFF" fill-opacity="0.15"/>
</g>
<g clip-path="url(#clip5_94_5712)">
<path d="M355.578 458.572C355.33 458.146 355.279 457.684 355.425 457.187C355.572 456.689 355.857 456.316 356.283 456.068C356.636 455.884 356.968 455.66 357.278 455.398C357.588 455.136 357.869 454.849 358.12 454.535C358.486 454.146 358.905 453.894 359.377 453.779C359.85 453.664 360.311 453.736 360.761 453.996C361.211 454.255 361.489 454.628 361.597 455.114C361.705 455.599 361.602 456.052 361.29 456.471C360.859 457.034 360.376 457.549 359.842 458.016C359.307 458.484 358.728 458.891 358.105 459.237C357.68 459.485 357.214 459.542 356.709 459.409C356.203 459.276 355.827 458.997 355.578 458.572ZM353.803 448.814L351.303 439.485C351.18 439.026 351.15 438.559 351.213 438.083C351.275 437.608 351.429 437.159 351.673 436.735L351.971 436.219C352.735 434.896 353.848 434.039 355.308 433.647C356.769 433.256 358.161 433.442 359.484 434.206C360.807 434.97 361.665 436.082 362.056 437.543C362.448 439.004 362.261 440.396 361.498 441.719L357.166 449.221C356.754 449.936 356.143 450.245 355.334 450.148C354.526 450.052 354.015 449.607 353.803 448.814ZM341.397 461.868L343.322 458.534C341.071 456.811 339.575 454.589 338.835 451.868C338.094 449.148 338.25 446.45 339.3 443.775C339.507 443.295 339.847 442.98 340.322 442.83C340.796 442.681 341.258 442.736 341.708 442.996C342.158 443.255 342.447 443.625 342.576 444.105C342.704 444.585 342.692 445.081 342.538 445.592C341.839 447.658 341.88 449.71 342.661 451.749C343.442 453.788 344.772 455.349 346.651 456.434C347.551 456.954 348.484 457.307 349.452 457.495C350.419 457.684 351.379 457.717 352.331 457.596L353.287 461.165C352.168 461.331 351.034 461.355 349.884 461.238C348.735 461.121 347.606 460.831 346.497 460.367L344.572 463.702C344.312 464.151 343.943 464.441 343.463 464.569C342.983 464.698 342.518 464.632 342.068 464.373C341.618 464.113 341.329 463.743 341.2 463.263C341.071 462.783 341.137 462.318 341.397 461.868ZM352.515 472.31L341.108 429.735C340.985 429.276 341.053 428.822 341.313 428.372C341.572 427.922 341.932 427.636 342.391 427.513C342.85 427.39 343.305 427.458 343.755 427.718C344.204 427.977 344.491 428.337 344.614 428.796L356.022 471.37C356.145 471.83 356.076 472.284 355.817 472.734C355.557 473.184 355.197 473.47 354.738 473.593C354.279 473.716 353.825 473.648 353.375 473.388C352.925 473.129 352.639 472.769 352.515 472.31Z" fill="#8CA5FF" fill-opacity="0.25"/>
</g>
<g clip-path="url(#clip6_94_5712)">
<path d="M414.792 480.957C413.738 482.783 412.409 484.335 410.806 485.615C409.203 486.894 407.456 487.888 405.565 488.596C405.034 488.783 404.522 488.752 404.031 488.504C403.539 488.255 403.215 487.839 403.059 487.255C402.913 486.712 402.991 486.21 403.293 485.749C403.594 485.288 404.005 484.943 404.525 484.714C405.9 484.167 407.164 483.398 408.319 482.406C409.474 481.414 410.44 480.244 411.22 478.894C411.999 477.545 412.521 476.135 412.788 474.666C413.054 473.196 413.08 471.73 412.867 470.266C412.779 469.686 412.865 469.154 413.127 468.67C413.389 468.186 413.799 467.858 414.356 467.686C414.914 467.514 415.434 467.576 415.916 467.872C416.398 468.168 416.691 468.593 416.795 469.146C417.127 471.138 417.14 473.147 416.833 475.176C416.527 477.204 415.846 479.131 414.792 480.957ZM407.568 476.786C407.079 477.633 406.477 478.37 405.762 478.998C405.046 479.626 404.259 480.133 403.401 480.519C402.881 480.748 402.372 480.728 401.875 480.459C401.378 480.189 401.051 479.762 400.894 479.178C400.749 478.635 400.811 478.115 401.08 477.618C401.35 477.121 401.734 476.716 402.231 476.404C402.558 476.204 402.867 475.96 403.158 475.669C403.45 475.378 403.702 475.048 403.916 474.677C404.13 474.307 404.29 473.923 404.396 473.526C404.502 473.128 404.567 472.725 404.592 472.316C404.613 471.728 404.768 471.2 405.057 470.732C405.345 470.263 405.76 469.956 406.303 469.81C406.887 469.654 407.42 469.723 407.902 470.019C408.384 470.315 408.656 470.746 408.718 471.311C408.812 472.247 408.766 473.182 408.58 474.116C408.394 475.049 408.057 475.939 407.568 476.786ZM388.897 474.474C387.151 473.466 386.015 471.981 385.489 470.019C384.963 468.057 385.205 466.203 386.213 464.457C387.221 462.71 388.707 461.574 390.668 461.048C392.63 460.523 394.484 460.764 396.231 461.772C397.977 462.781 399.113 464.266 399.639 466.228C400.165 468.189 399.923 470.044 398.915 471.79C397.907 473.536 396.421 474.673 394.46 475.198C392.498 475.724 390.644 475.483 388.897 474.474ZM370.696 476.667L371.429 475.397C371.933 474.524 372.632 473.833 373.525 473.326C374.417 472.818 375.375 472.595 376.398 472.656C378.145 472.747 380.003 473.044 381.971 473.545C383.94 474.047 385.943 474.885 387.981 476.062C390.018 477.238 391.746 478.554 393.165 480.008C394.583 481.462 395.769 482.922 396.721 484.39C397.286 485.245 397.572 486.186 397.578 487.213C397.585 488.24 397.337 489.19 396.832 490.064L396.099 491.334C395.595 492.207 394.852 492.775 393.871 493.038C392.891 493.301 391.964 493.18 391.09 492.676L372.038 481.676C371.164 481.172 370.596 480.429 370.334 479.448C370.071 478.467 370.191 477.54 370.696 476.667Z" fill="#ADBFFF" fill-opacity="0.15"/>
</g>
<g clip-path="url(#clip7_94_5712)">
<path d="M309.738 498.369L303.978 499.912C303.185 500.125 302.545 499.905 302.057 499.253C301.569 498.601 301.531 497.917 301.944 497.203L316.221 472.474C316.725 471.601 317.467 471.033 318.448 470.77C319.429 470.507 320.356 470.628 321.229 471.132L346.633 485.799C347.506 486.303 348.074 487.046 348.337 488.027C348.6 489.007 348.479 489.934 347.975 490.808L336.975 509.86C336.471 510.734 335.728 511.302 334.747 511.564C333.766 511.827 332.839 511.707 331.966 511.202L309.738 498.369ZM314.993 492.935L324.519 498.435C324.969 498.695 325.434 498.76 325.914 498.631C326.394 498.503 326.764 498.214 327.023 497.764C327.283 497.314 327.349 496.849 327.22 496.369C327.091 495.889 326.802 495.519 326.352 495.259L316.826 489.759C316.376 489.5 315.911 489.434 315.431 489.563C314.951 489.691 314.581 489.981 314.322 490.43C314.062 490.88 313.996 491.345 314.125 491.825C314.253 492.305 314.543 492.675 314.993 492.935ZM317.743 488.172L333.62 497.338C334.07 497.598 334.534 497.664 335.014 497.535C335.495 497.406 335.864 497.117 336.124 496.667C336.384 496.217 336.449 495.753 336.321 495.273C336.192 494.793 335.903 494.423 335.453 494.163L319.576 484.996C319.126 484.737 318.661 484.671 318.181 484.8C317.701 484.928 317.331 485.217 317.072 485.667C316.812 486.117 316.746 486.582 316.875 487.062C317.003 487.542 317.293 487.912 317.743 488.172ZM320.493 483.409L336.37 492.575C336.82 492.835 337.284 492.901 337.764 492.772C338.245 492.643 338.614 492.354 338.874 491.904C339.134 491.454 339.199 490.989 339.071 490.509C338.942 490.029 338.653 489.66 338.203 489.4L322.326 480.233C321.876 479.973 321.411 479.908 320.931 480.036C320.451 480.165 320.081 480.454 319.822 480.904C319.562 481.354 319.496 481.819 319.625 482.299C319.753 482.779 320.043 483.149 320.493 483.409Z" fill="#ADBFFF" fill-opacity="0.15"/>
</g>
<g clip-path="url(#clip8_94_5712)">
<path d="M433.498 550.769C432.444 552.595 431.115 554.148 429.512 555.428C427.909 556.707 426.162 557.701 424.272 558.409C423.74 558.596 423.229 558.565 422.737 558.317C422.246 558.068 421.921 557.652 421.765 557.067C421.619 556.525 421.698 556.023 421.999 555.562C422.3 555.101 422.711 554.756 423.232 554.527C424.606 553.98 425.87 553.21 427.025 552.219C428.18 551.227 429.147 550.056 429.926 548.707C430.705 547.357 431.228 545.948 431.494 544.479C431.76 543.009 431.787 541.543 431.573 540.079C431.485 539.498 431.572 538.966 431.833 538.482C432.095 537.998 432.505 537.671 433.063 537.499C433.621 537.327 434.141 537.389 434.622 537.685C435.104 537.981 435.397 538.405 435.501 538.959C435.833 540.95 435.846 542.96 435.539 544.988C435.233 547.017 434.552 548.944 433.498 550.769ZM426.274 546.599C425.785 547.445 425.183 548.183 424.468 548.811C423.753 549.438 422.966 549.946 422.108 550.332C421.587 550.561 421.079 550.541 420.581 550.271C420.084 550.002 419.757 549.575 419.601 548.991C419.455 548.448 419.517 547.928 419.787 547.431C420.056 546.934 420.44 546.529 420.938 546.217C421.265 546.017 421.574 545.772 421.865 545.482C422.156 545.191 422.409 544.861 422.622 544.49C422.836 544.12 422.996 543.736 423.102 543.338C423.208 542.941 423.274 542.537 423.298 542.128C423.32 541.541 423.475 541.013 423.763 540.544C424.051 540.076 424.466 539.769 425.009 539.623C425.593 539.467 426.127 539.536 426.608 539.832C427.09 540.128 427.362 540.558 427.424 541.123C427.519 542.06 427.473 542.995 427.287 543.928C427.101 544.862 426.763 545.752 426.274 546.599ZM407.604 544.287C405.857 543.279 404.721 541.794 404.195 539.832C403.67 537.87 403.911 536.016 404.919 534.269C405.928 532.523 407.413 531.387 409.375 530.861C411.336 530.336 413.19 530.577 414.937 531.585C416.683 532.594 417.82 534.079 418.345 536.04C418.871 538.002 418.629 539.856 417.621 541.603C416.613 543.349 415.128 544.485 413.166 545.011C411.204 545.537 409.35 545.295 407.604 544.287ZM389.402 546.48L390.135 545.21C390.639 544.336 391.338 543.646 392.231 543.138C393.124 542.631 394.082 542.408 395.105 542.469C396.852 542.56 398.709 542.856 400.678 543.358C402.646 543.859 404.649 544.698 406.687 545.875C408.725 547.051 410.453 548.366 411.871 549.82C413.29 551.274 414.475 552.735 415.428 554.202C415.992 555.058 416.278 555.999 416.285 557.026C416.292 558.053 416.043 559.003 415.539 559.876L414.805 561.147C414.301 562.02 413.559 562.588 412.578 562.851C411.597 563.113 410.67 562.993 409.797 562.489L390.744 551.489C389.871 550.984 389.303 550.242 389.04 549.261C388.777 548.28 388.898 547.353 389.402 546.48Z" fill="#ADBFFF" fill-opacity="0.15"/>
</g>
<g clip-path="url(#clip9_94_5712)">
<path d="M462.804 579.491C462.555 579.065 462.504 578.604 462.651 578.106C462.797 577.608 463.083 577.235 463.508 576.987C463.862 576.803 464.193 576.58 464.503 576.318C464.813 576.056 465.094 575.768 465.346 575.454C465.711 575.066 466.13 574.814 466.603 574.698C467.075 574.583 467.536 574.655 467.986 574.915C468.436 575.174 468.715 575.547 468.822 576.033C468.93 576.518 468.828 576.971 468.515 577.39C468.084 577.953 467.601 578.468 467.067 578.936C466.532 579.403 465.954 579.81 465.33 580.156C464.905 580.404 464.439 580.462 463.934 580.329C463.429 580.196 463.052 579.916 462.804 579.491ZM461.028 569.733L458.528 560.404C458.405 559.945 458.375 559.478 458.438 559.003C458.501 558.527 458.654 558.078 458.899 557.654L459.196 557.138C459.96 555.815 461.073 554.958 462.534 554.567C463.995 554.175 465.387 554.361 466.71 555.125C468.033 555.889 468.89 557.002 469.281 558.462C469.673 559.923 469.487 561.315 468.723 562.638L464.391 570.14C463.979 570.855 463.368 571.164 462.56 571.067C461.751 570.971 461.24 570.526 461.028 569.733ZM448.622 582.787L450.547 579.453C448.296 577.73 446.8 575.508 446.06 572.788C445.32 570.067 445.475 567.369 446.525 564.694C446.732 564.214 447.073 563.899 447.547 563.749C448.021 563.6 448.483 563.655 448.933 563.915C449.383 564.174 449.672 564.544 449.801 565.024C449.93 565.504 449.917 566 449.763 566.511C449.064 568.577 449.105 570.629 449.886 572.668C450.668 574.707 451.997 576.269 453.876 577.353C454.776 577.873 455.71 578.227 456.677 578.415C457.645 578.603 458.604 578.636 459.556 578.516L460.512 582.084C459.394 582.25 458.259 582.274 457.11 582.157C455.96 582.04 454.831 581.75 453.722 581.287L451.797 584.621C451.538 585.071 451.168 585.36 450.688 585.489C450.208 585.617 449.743 585.552 449.293 585.292C448.843 585.032 448.554 584.662 448.425 584.182C448.297 583.702 448.362 583.237 448.622 582.787ZM459.741 593.229L448.333 550.655C448.21 550.196 448.278 549.741 448.538 549.291C448.798 548.841 449.157 548.555 449.616 548.432C450.075 548.309 450.53 548.377 450.98 548.637C451.43 548.897 451.716 549.256 451.839 549.715L463.247 592.29C463.37 592.749 463.302 593.203 463.042 593.653C462.782 594.103 462.423 594.389 461.964 594.512C461.504 594.635 461.05 594.567 460.6 594.307C460.15 594.048 459.864 593.688 459.741 593.229Z" fill="#8CA5FF" fill-opacity="0.25"/>
</g>
<path d="M490.708 601.105L500.195 584.673C500.455 584.223 500.831 583.937 501.325 583.816C501.818 583.695 502.276 583.757 502.7 584.002C502.832 584.078 502.959 584.178 503.082 584.302C503.205 584.425 503.309 584.565 503.396 584.721L511.592 600.408C511.738 600.704 511.802 601.006 511.784 601.313C511.765 601.62 511.68 601.906 511.527 602.17C511.374 602.435 511.17 602.652 510.913 602.821C510.657 602.991 510.363 603.086 510.033 603.107L492.35 603.853C492.172 603.856 491.998 603.835 491.83 603.791C491.662 603.747 491.511 603.686 491.379 603.61C490.955 603.365 490.673 602.999 490.531 602.512C490.389 602.024 490.448 601.555 490.708 601.105Z" fill="#ADBFFF" fill-opacity="0.15"/>
<g clip-path="url(#clip10_94_5712)">
<path d="M329.567 562.479C329.117 562.219 328.835 561.853 328.719 561.381C328.604 560.908 328.676 560.447 328.936 559.997C329.195 559.548 329.565 559.258 330.045 559.13C330.525 559.001 330.99 559.067 331.44 559.326L353.708 572.183C354.158 572.442 354.44 572.808 354.556 573.281C354.671 573.753 354.599 574.214 354.339 574.664C354.079 575.114 353.709 575.403 353.229 575.532C352.749 575.66 352.285 575.595 351.835 575.335L329.567 562.479ZM325.9 568.83C325.451 568.57 325.168 568.204 325.052 567.732C324.937 567.259 325.009 566.798 325.269 566.348C325.529 565.898 325.899 565.609 326.379 565.481C326.859 565.352 327.324 565.418 327.773 565.677L350.041 578.533C350.491 578.793 350.774 579.159 350.889 579.632C351.004 580.104 350.932 580.565 350.672 581.015C350.413 581.465 350.043 581.754 349.563 581.883C349.083 582.011 348.618 581.946 348.168 581.686L325.9 568.83ZM333.234 556.128C332.784 555.868 332.501 555.502 332.386 555.03C332.27 554.558 332.343 554.096 332.602 553.647C332.862 553.197 333.232 552.907 333.712 552.779C334.192 552.65 334.657 552.716 335.107 552.976L357.374 565.832C357.824 566.092 358.107 566.458 358.222 566.93C358.338 567.402 358.265 567.863 358.006 568.313C357.746 568.763 357.376 569.052 356.896 569.181C356.416 569.31 355.951 569.244 355.501 568.984L333.234 556.128ZM336.9 549.777C336.451 549.517 336.168 549.151 336.052 548.679C335.937 548.207 336.009 547.746 336.269 547.296C336.529 546.846 336.899 546.557 337.379 546.428C337.859 546.299 338.324 546.365 338.773 546.625L361.041 559.481C361.491 559.741 361.774 560.107 361.889 560.579C362.004 561.051 361.932 561.513 361.672 561.962C361.413 562.412 361.043 562.701 360.563 562.83C360.083 562.959 359.618 562.893 359.168 562.633L336.9 549.777Z" fill="#8CA5FF" fill-opacity="0.25"/>
</g>
<g clip-path="url(#clip11_94_5712)">
<path d="M392.991 598.197C392.743 597.771 392.692 597.31 392.838 596.812C392.984 596.314 393.27 595.941 393.696 595.693C394.049 595.509 394.381 595.286 394.691 595.024C395.001 594.762 395.281 594.474 395.533 594.161C395.899 593.772 396.318 593.52 396.79 593.404C397.262 593.289 397.723 593.361 398.173 593.621C398.623 593.881 398.902 594.253 399.01 594.739C399.117 595.224 399.015 595.677 398.702 596.096C398.271 596.659 397.789 597.174 397.254 597.642C396.72 598.109 396.141 598.516 395.518 598.862C395.092 599.11 394.627 599.168 394.121 599.035C393.616 598.902 393.239 598.623 392.991 598.197ZM391.215 588.439L388.715 579.111C388.592 578.651 388.562 578.184 388.625 577.709C388.688 577.233 388.841 576.784 389.086 576.361L389.384 575.845C390.148 574.522 391.26 573.664 392.721 573.273C394.182 572.881 395.574 573.068 396.897 573.831C398.22 574.595 399.077 575.708 399.469 577.169C399.86 578.63 399.674 580.022 398.91 581.345L394.579 588.847C394.166 589.561 393.556 589.87 392.747 589.774C391.938 589.677 391.428 589.232 391.215 588.439ZM378.809 601.494L380.734 598.159C378.483 596.436 376.987 594.214 376.247 591.494C375.507 588.773 375.662 586.075 376.712 583.4C376.919 582.92 377.26 582.605 377.734 582.456C378.209 582.306 378.671 582.361 379.121 582.621C379.57 582.881 379.86 583.25 379.988 583.73C380.117 584.21 380.104 584.706 379.95 585.217C379.251 587.283 379.293 589.336 380.074 591.374C380.855 593.413 382.185 594.975 384.064 596.059C384.963 596.579 385.897 596.933 386.864 597.121C387.832 597.309 388.792 597.343 389.743 597.222L390.7 600.79C389.581 600.956 388.447 600.98 387.297 600.863C386.147 600.747 385.018 600.456 383.91 599.993L381.985 603.327C381.725 603.777 381.355 604.066 380.875 604.195C380.395 604.323 379.93 604.258 379.48 603.998C379.03 603.738 378.741 603.368 378.613 602.888C378.484 602.408 378.549 601.944 378.809 601.494ZM389.928 611.935L378.52 569.361C378.397 568.902 378.466 568.447 378.725 567.997C378.985 567.548 379.344 567.261 379.804 567.138C380.263 567.015 380.717 567.083 381.167 567.343C381.617 567.603 381.903 567.962 382.026 568.421L393.434 610.996C393.557 611.455 393.489 611.909 393.229 612.359C392.969 612.809 392.61 613.096 392.151 613.219C391.692 613.342 391.237 613.273 390.787 613.014C390.337 612.754 390.051 612.394 389.928 611.935Z" fill="#ADBFFF" fill-opacity="0.15"/>
</g>
<path d="M430.156 618.437C428.833 617.673 427.976 616.561 427.585 615.1C427.193 613.639 427.379 612.247 428.143 610.924L433.643 601.398C434.407 600.075 435.519 599.217 436.98 598.826C438.441 598.435 439.833 598.621 441.156 599.385C442.479 600.149 443.337 601.261 443.728 602.722C444.12 604.183 443.933 605.575 443.169 606.898L437.669 616.424C436.906 617.747 435.793 618.604 434.332 618.996C432.871 619.387 431.479 619.201 430.156 618.437ZM423.069 627.047L424.971 623.752C422.735 622.003 421.247 619.768 420.507 617.047C419.766 614.326 419.921 611.628 420.972 608.954C421.179 608.473 421.519 608.158 421.994 608.009C422.468 607.859 422.93 607.914 423.38 608.174C423.83 608.434 424.119 608.804 424.248 609.284C424.376 609.764 424.364 610.259 424.21 610.77C423.511 612.836 423.552 614.889 424.333 616.927C425.114 618.966 426.444 620.528 428.323 621.613C430.228 622.713 432.256 623.081 434.407 622.717C436.557 622.353 438.345 621.365 439.769 619.753C440.135 619.365 440.558 619.106 441.038 618.977C441.518 618.849 441.983 618.914 442.433 619.174C442.882 619.434 443.161 619.806 443.269 620.292C443.377 620.778 443.274 621.23 442.962 621.649C441.201 623.844 438.956 625.317 436.228 626.071C433.5 626.824 430.806 626.662 428.146 625.586L426.244 628.88C425.984 629.33 425.614 629.619 425.134 629.748C424.654 629.876 424.19 629.811 423.74 629.551C423.29 629.291 423.001 628.922 422.872 628.442C422.743 627.962 422.809 627.497 423.069 627.047Z" fill="#ADBFFF" fill-opacity="0.15"/>
<g clip-path="url(#clip12_94_5712)">
<path d="M496.464 646.135C495.41 647.961 494.081 649.514 492.478 650.793C490.875 652.073 489.128 653.067 487.237 653.775C486.706 653.962 486.194 653.931 485.703 653.682C485.211 653.434 484.887 653.017 484.731 652.433C484.585 651.891 484.663 651.389 484.965 650.928C485.266 650.467 485.677 650.122 486.197 649.893C487.572 649.346 488.836 648.576 489.991 647.585C491.146 646.593 492.112 645.422 492.892 644.073C493.671 642.723 494.193 641.314 494.46 639.844C494.726 638.375 494.752 636.908 494.539 635.445C494.451 634.864 494.537 634.332 494.799 633.848C495.061 633.364 495.471 633.036 496.028 632.865C496.586 632.693 497.106 632.755 497.588 633.051C498.07 633.346 498.363 633.771 498.467 634.325C498.799 636.316 498.812 638.326 498.505 640.354C498.199 642.382 497.518 644.309 496.464 646.135ZM489.24 641.964C488.751 642.811 488.149 643.549 487.434 644.176C486.718 644.804 485.931 645.311 485.073 645.698C484.553 645.927 484.044 645.907 483.547 645.637C483.05 645.368 482.723 644.941 482.566 644.356C482.421 643.814 482.483 643.294 482.752 642.797C483.022 642.3 483.406 641.895 483.903 641.582C484.23 641.383 484.539 641.138 484.83 640.848C485.122 640.557 485.374 640.227 485.588 639.856C485.802 639.486 485.962 639.102 486.068 638.704C486.174 638.307 486.239 637.903 486.264 637.494C486.285 636.907 486.44 636.379 486.729 635.91C487.017 635.441 487.432 635.134 487.975 634.989C488.559 634.832 489.092 634.902 489.574 635.198C490.056 635.494 490.328 635.924 490.39 636.489C490.484 637.426 490.438 638.361 490.252 639.294C490.066 640.228 489.729 641.118 489.24 641.964ZM470.569 639.653C468.823 638.644 467.687 637.159 467.161 635.198C466.635 633.236 466.877 631.382 467.885 629.635C468.893 627.889 470.379 626.753 472.34 626.227C474.302 625.701 476.156 625.943 477.903 626.951C479.649 627.959 480.785 629.444 481.311 631.406C481.837 633.368 481.595 635.222 480.587 636.969C479.579 638.715 478.093 639.851 476.132 640.377C474.17 640.902 472.316 640.661 470.569 639.653ZM452.368 641.846L453.101 640.576C453.605 639.702 454.304 639.012 455.197 638.504C456.089 637.996 457.047 637.773 458.07 637.835C459.817 637.926 461.675 638.222 463.643 638.724C465.612 639.225 467.615 640.064 469.653 641.24C471.69 642.417 473.418 643.732 474.837 645.186C476.255 646.64 477.441 648.101 478.393 649.568C478.958 650.423 479.244 651.365 479.25 652.392C479.257 653.419 479.009 654.369 478.504 655.242L477.771 656.512C477.267 657.386 476.524 657.954 475.543 658.216C474.563 658.479 473.636 658.359 472.762 657.854L453.71 646.854C452.836 646.35 452.268 645.608 452.006 644.627C451.743 643.646 451.863 642.719 452.368 641.846Z" fill="#ADBFFF" fill-opacity="0.15"/>
</g>
<g clip-path="url(#clip13_94_5712)">
<path d="M505.482 670.395L499.722 671.938C498.929 672.15 498.289 671.931 497.801 671.278C497.313 670.626 497.275 669.943 497.688 669.229L511.965 644.5C512.469 643.627 513.212 643.059 514.192 642.796C515.173 642.533 516.1 642.654 516.974 643.158L542.377 657.824C543.25 658.329 543.818 659.071 544.081 660.052C544.344 661.033 544.223 661.96 543.719 662.833L532.719 681.886C532.215 682.759 531.472 683.327 530.492 683.59C529.511 683.853 528.584 683.732 527.71 683.228L505.482 670.395ZM510.737 664.96L520.263 670.46C520.713 670.72 521.178 670.786 521.658 670.657C522.138 670.528 522.508 670.239 522.767 669.789C523.027 669.339 523.093 668.875 522.964 668.395C522.835 667.915 522.546 667.545 522.096 667.285L512.57 661.785C512.12 661.525 511.655 661.46 511.175 661.588C510.695 661.717 510.325 662.006 510.066 662.456C509.806 662.906 509.74 663.371 509.869 663.851C509.998 664.331 510.287 664.701 510.737 664.96ZM513.487 660.197L529.364 669.364C529.814 669.624 530.279 669.689 530.759 669.561C531.239 669.432 531.609 669.143 531.868 668.693C532.128 668.243 532.194 667.778 532.065 667.298C531.936 666.818 531.647 666.448 531.197 666.188L515.32 657.022C514.87 656.762 514.405 656.697 513.925 656.825C513.445 656.954 513.075 657.243 512.816 657.693C512.556 658.143 512.49 658.608 512.619 659.088C512.748 659.568 513.037 659.937 513.487 660.197ZM516.237 655.434L532.114 664.601C532.564 664.86 533.029 664.926 533.509 664.797C533.989 664.669 534.359 664.38 534.618 663.93C534.878 663.48 534.944 663.015 534.815 662.535C534.686 662.055 534.397 661.685 533.947 661.425L518.07 652.259C517.62 651.999 517.155 651.933 516.675 652.062C516.195 652.191 515.825 652.48 515.566 652.93C515.306 653.38 515.24 653.844 515.369 654.324C515.498 654.804 515.787 655.174 516.237 655.434Z" fill="#ADBFFF" fill-opacity="0.15"/>
</g>
<path d="M271.825 586.037C270.502 585.273 269.644 584.161 269.253 582.7C268.861 581.239 269.048 579.847 269.812 578.524L275.312 568.998C276.075 567.675 277.188 566.817 278.649 566.426C280.11 566.034 281.502 566.221 282.825 566.984C284.148 567.748 285.005 568.861 285.397 570.322C285.788 571.783 285.602 573.175 284.838 574.498L279.338 584.024C278.574 585.347 277.462 586.204 276.001 586.596C274.54 586.987 273.148 586.801 271.825 586.037ZM264.737 594.647L266.639 591.352C264.403 589.603 262.915 587.367 262.175 584.647C261.435 581.926 261.59 579.228 262.64 576.553C262.847 576.073 263.188 575.758 263.662 575.609C264.136 575.459 264.599 575.514 265.048 575.774C265.498 576.034 265.787 576.403 265.916 576.883C266.045 577.364 266.032 577.859 265.878 578.37C265.179 580.436 265.22 582.489 266.001 584.527C266.783 586.566 268.113 588.128 269.991 589.212C271.897 590.312 273.925 590.681 276.075 590.317C278.226 589.953 280.013 588.965 281.438 587.353C281.803 586.965 282.226 586.706 282.706 586.577C283.186 586.449 283.651 586.514 284.101 586.774C284.551 587.034 284.83 587.406 284.937 587.892C285.045 588.377 284.943 588.83 284.63 589.249C282.869 591.443 280.625 592.917 277.896 593.671C275.168 594.424 272.474 594.262 269.814 593.185L267.912 596.48C267.653 596.93 267.283 597.219 266.803 597.348C266.323 597.476 265.858 597.411 265.408 597.151C264.958 596.891 264.669 596.521 264.54 596.041C264.412 595.561 264.477 595.097 264.737 594.647Z" fill="#ADBFFF" fill-opacity="0.15"/>
<g clip-path="url(#clip14_94_5712)">
<path d="M298.952 619.052C298.078 618.547 297.51 617.805 297.248 616.824C296.985 615.843 297.105 614.916 297.61 614.043L306.776 598.166C307.28 597.293 308.023 596.724 309.004 596.462C309.985 596.199 310.912 596.32 311.785 596.824L313.373 597.74L315.206 594.565C316.474 592.369 318.329 590.943 320.771 590.289C323.213 589.635 325.532 589.942 327.728 591.21C329.924 592.478 331.35 594.333 332.004 596.774C332.658 599.216 332.351 601.535 331.083 603.732L329.25 606.907L330.838 607.824C331.711 608.328 332.279 609.07 332.542 610.051C332.805 611.032 332.684 611.959 332.18 612.832L323.013 628.71C322.509 629.583 321.766 630.151 320.785 630.414C319.805 630.676 318.878 630.556 318.004 630.052L298.952 619.052ZM313.061 616.613C313.935 617.117 314.862 617.238 315.842 616.975C316.823 616.712 317.566 616.144 318.07 615.271C318.574 614.398 318.695 613.471 318.432 612.49C318.169 611.509 317.601 610.766 316.728 610.262C315.855 609.758 314.928 609.637 313.947 609.9C312.966 610.163 312.223 610.731 311.719 611.604C311.215 612.478 311.094 613.405 311.357 614.386C311.62 615.366 312.188 616.109 313.061 616.613ZM316.548 599.574L326.074 605.074L327.908 601.898C328.672 600.575 328.858 599.183 328.466 597.722C328.075 596.261 327.218 595.149 325.895 594.385C324.572 593.621 323.18 593.435 321.719 593.826C320.258 594.218 319.145 595.075 318.382 596.398L316.548 599.574Z" fill="#ADBFFF" fill-opacity="0.15"/>
</g>
<g clip-path="url(#clip15_94_5712)">
<path d="M347.151 637.994L341.391 639.538C340.598 639.75 339.957 639.53 339.469 638.878C338.981 638.226 338.944 637.543 339.356 636.828L353.633 612.1C354.137 611.227 354.88 610.658 355.861 610.396C356.842 610.133 357.769 610.253 358.642 610.758L384.045 625.424C384.919 625.928 385.487 626.671 385.749 627.652C386.012 628.633 385.892 629.56 385.387 630.433L374.387 649.486C373.883 650.359 373.141 650.927 372.16 651.19C371.179 651.453 370.252 651.332 369.379 650.828L347.151 637.994ZM352.405 632.56L361.931 638.06C362.381 638.32 362.846 638.385 363.326 638.257C363.806 638.128 364.176 637.839 364.436 637.389C364.695 636.939 364.761 636.474 364.632 635.994C364.504 635.514 364.215 635.145 363.765 634.885L354.238 629.385C353.789 629.125 353.324 629.06 352.844 629.188C352.364 629.317 351.994 629.606 351.734 630.056C351.474 630.506 351.409 630.971 351.537 631.451C351.666 631.931 351.955 632.3 352.405 632.56ZM355.155 627.797L371.032 636.964C371.482 637.223 371.947 637.289 372.427 637.16C372.907 637.032 373.277 636.743 373.537 636.293C373.796 635.843 373.862 635.378 373.733 634.898C373.605 634.418 373.315 634.048 372.866 633.788L356.988 624.622C356.539 624.362 356.074 624.296 355.594 624.425C355.114 624.554 354.744 624.843 354.484 625.293C354.224 625.743 354.159 626.207 354.287 626.687C354.416 627.167 354.705 627.537 355.155 627.797ZM357.905 623.034L373.782 632.201C374.232 632.46 374.697 632.526 375.177 632.397C375.657 632.269 376.027 631.979 376.287 631.53C376.546 631.08 376.612 630.615 376.483 630.135C376.355 629.655 376.065 629.285 375.616 629.025L359.738 619.859C359.289 619.599 358.824 619.533 358.344 619.662C357.864 619.79 357.494 620.08 357.234 620.53C356.974 620.979 356.909 621.444 357.037 621.924C357.166 622.404 357.455 622.774 357.905 623.034Z" fill="#ADBFFF" fill-opacity="0.15"/>
</g>
<g clip-path="url(#clip16_94_5712)">
<path d="M411.697 668.01C411.449 667.584 411.398 667.122 411.544 666.625C411.69 666.127 411.976 665.754 412.402 665.506C412.755 665.322 413.087 665.099 413.397 664.837C413.707 664.575 413.988 664.287 414.239 663.973C414.605 663.585 415.024 663.333 415.496 663.217C415.968 663.102 416.43 663.174 416.879 663.434C417.329 663.693 417.608 664.066 417.716 664.552C417.824 665.037 417.721 665.49 417.408 665.909C416.978 666.472 416.495 666.987 415.96 667.455C415.426 667.922 414.847 668.329 414.224 668.675C413.798 668.923 413.333 668.981 412.828 668.848C412.322 668.715 411.945 668.435 411.697 668.01ZM409.921 658.252L407.422 648.923C407.299 648.464 407.269 647.997 407.331 647.521C407.394 647.046 407.548 646.597 407.792 646.173L408.09 645.657C408.854 644.334 409.966 643.477 411.427 643.086C412.888 642.694 414.28 642.88 415.603 643.644C416.926 644.408 417.784 645.52 418.175 646.981C418.566 648.442 418.38 649.834 417.616 651.157L413.285 658.659C412.873 659.374 412.262 659.683 411.453 659.586C410.644 659.49 410.134 659.045 409.921 658.252ZM397.515 671.306L399.44 667.972C397.189 666.249 395.694 664.027 394.953 661.306C394.213 658.586 394.368 655.888 395.419 653.213C395.625 652.733 395.966 652.418 396.44 652.268C396.915 652.119 397.377 652.174 397.827 652.434C398.277 652.693 398.566 653.063 398.695 653.543C398.823 654.023 398.811 654.519 398.657 655.03C397.958 657.096 397.999 659.148 398.78 661.187C399.561 663.226 400.891 664.787 402.77 665.872C403.67 666.392 404.603 666.745 405.571 666.934C406.538 667.122 407.498 667.155 408.45 667.034L409.406 670.603C408.287 670.769 407.153 670.793 406.003 670.676C404.853 670.559 403.724 670.269 402.616 669.806L400.691 673.14C400.431 673.59 400.061 673.879 399.581 674.007C399.101 674.136 398.636 674.07 398.186 673.811C397.737 673.551 397.447 673.181 397.319 672.701C397.19 672.221 397.256 671.756 397.515 671.306ZM408.634 681.748L397.226 639.174C397.103 638.714 397.172 638.26 397.432 637.81C397.691 637.36 398.051 637.074 398.51 636.951C398.969 636.828 399.423 636.896 399.873 637.156C400.323 637.416 400.61 637.775 400.733 638.234L412.14 680.809C412.263 681.268 412.195 681.722 411.935 682.172C411.676 682.622 411.316 682.908 410.857 683.031C410.398 683.154 409.943 683.086 409.494 682.826C409.044 682.567 408.757 682.207 408.634 681.748Z" fill="#8CA5FF" fill-opacity="0.25"/>
</g>
<g clip-path="url(#clip17_94_5712)">
<path d="M312.579 657.995C311.525 659.82 310.196 661.373 308.593 662.653C306.99 663.932 305.243 664.926 303.352 665.634C302.821 665.821 302.31 665.79 301.818 665.542C301.326 665.293 301.002 664.877 300.846 664.292C300.7 663.75 300.778 663.248 301.08 662.787C301.381 662.326 301.792 661.981 302.312 661.752C303.687 661.205 304.951 660.436 306.106 659.444C307.261 658.452 308.228 657.282 309.007 655.932C309.786 654.583 310.309 653.173 310.575 651.704C310.841 650.234 310.867 648.768 310.654 647.304C310.566 646.724 310.652 646.192 310.914 645.708C311.176 645.224 311.586 644.896 312.144 644.724C312.702 644.552 313.221 644.614 313.703 644.91C314.185 645.206 314.478 645.631 314.582 646.184C314.914 648.176 314.927 650.185 314.62 652.214C314.314 654.242 313.633 656.169 312.579 657.995ZM305.355 653.824C304.866 654.671 304.264 655.408 303.549 656.036C302.833 656.664 302.047 657.171 301.188 657.557C300.668 657.786 300.159 657.766 299.662 657.497C299.165 657.227 298.838 656.8 298.682 656.216C298.536 655.673 298.598 655.153 298.868 654.656C299.137 654.159 299.521 653.754 300.019 653.442C300.345 653.242 300.654 652.997 300.946 652.707C301.237 652.416 301.489 652.086 301.703 651.715C301.917 651.345 302.077 650.961 302.183 650.564C302.289 650.166 302.354 649.763 302.379 649.354C302.401 648.766 302.555 648.238 302.844 647.769C303.132 647.301 303.547 646.994 304.09 646.848C304.674 646.692 305.207 646.761 305.689 647.057C306.171 647.353 306.443 647.784 306.505 648.349C306.599 649.285 306.554 650.22 306.367 651.154C306.181 652.087 305.844 652.977 305.355 653.824ZM286.684 651.512C284.938 650.504 283.802 649.019 283.276 647.057C282.751 645.095 282.992 643.241 284 641.495C285.009 639.748 286.494 638.612 288.455 638.086C290.417 637.561 292.271 637.802 294.018 638.81C295.764 639.819 296.9 641.304 297.426 643.266C297.952 645.227 297.71 647.081 296.702 648.828C295.694 650.574 294.209 651.711 292.247 652.236C290.285 652.762 288.431 652.52 286.684 651.512ZM268.483 653.705L269.216 652.435C269.72 651.562 270.419 650.871 271.312 650.364C272.205 649.856 273.163 649.633 274.186 649.694C275.932 649.785 277.79 650.082 279.759 650.583C281.727 651.085 283.73 651.923 285.768 653.1C287.805 654.276 289.533 655.591 290.952 657.046C292.371 658.5 293.556 659.96 294.508 661.427C295.073 662.283 295.359 663.224 295.366 664.251C295.372 665.278 295.124 666.228 294.62 667.102L293.886 668.372C293.382 669.245 292.639 669.813 291.659 670.076C290.678 670.339 289.751 670.218 288.877 669.714L269.825 658.714C268.952 658.21 268.384 657.467 268.121 656.486C267.858 655.505 267.979 654.578 268.483 653.705Z" fill="#8CA5FF" fill-opacity="0.25"/>
</g>
</g>
</g>
<defs>
<clipPath id="clip0_94_5712">
<path d="M463.092 312.752L501.197 334.752C489.047 355.797 462.137 363.008 441.092 350.857L463.092 312.752Z" fill="white"/>
</clipPath>
<clipPath id="clip1_94_5712">
<path d="M437.631 357.065L475.736 379.065C463.586 400.11 436.676 407.32 415.631 395.17L437.631 357.065Z" fill="white"/>
</clipPath>
<clipPath id="clip2_94_5712">
<path d="M481.891 382.618L519.996 404.618C507.845 425.663 480.935 432.874 459.891 420.723L481.891 382.618Z" fill="white"/>
</clipPath>
<clipPath id="clip3_94_5712">
<path d="M456.337 426.878L494.442 448.878C482.292 469.922 455.382 477.133 434.337 464.983L456.337 426.878Z" fill="white"/>
</clipPath>
<clipPath id="clip4_94_5712">
<path d="M500.597 452.431L538.702 474.431C526.552 495.476 499.642 502.686 478.597 490.536L500.597 452.431Z" fill="white"/>
</clipPath>
<clipPath id="clip5_94_5712">
<path d="M342.265 420.031L380.37 442.031C368.22 463.076 341.31 470.286 320.265 458.136L342.265 420.031Z" fill="white"/>
</clipPath>
<clipPath id="clip6_94_5712">
<path d="M386.525 445.584L424.63 467.584C412.479 488.629 385.569 495.839 364.525 483.689L386.525 445.584Z" fill="white"/>
</clipPath>
<clipPath id="clip7_94_5712">
<path d="M316.712 464.29L354.817 486.29C342.667 507.335 315.757 514.546 294.712 502.395L316.712 464.29Z" fill="white"/>
</clipPath>
<clipPath id="clip8_94_5712">
<path d="M405.231 515.397L443.336 537.397C431.186 558.441 404.276 565.652 383.231 553.502L405.231 515.397Z" fill="white"/>
</clipPath>
<clipPath id="clip9_94_5712">
<path d="M449.49 540.95L487.595 562.95C475.445 583.995 448.535 591.205 427.49 579.055L449.49 540.95Z" fill="white"/>
</clipPath>
<clipPath id="clip10_94_5712">
<path d="M335.418 534.103L373.523 556.103C361.373 577.148 334.463 584.358 313.418 572.208L335.418 534.103Z" fill="white"/>
</clipPath>
<clipPath id="clip11_94_5712">
<path d="M379.678 559.656L417.783 581.656C405.633 602.701 378.723 609.911 357.678 597.761L379.678 559.656Z" fill="white"/>
</clipPath>
<clipPath id="clip12_94_5712">
<path d="M468.197 610.762L506.302 632.762C494.151 653.807 467.241 661.018 446.197 648.868L468.197 610.762Z" fill="white"/>
</clipPath>
<clipPath id="clip13_94_5712">
<path d="M512.456 636.316L550.561 658.316C538.411 679.361 511.501 686.571 490.456 674.421L512.456 636.316Z" fill="white"/>
</clipPath>
<clipPath id="clip14_94_5712">
<path d="M309.592 578.622L347.697 600.622C335.547 621.667 308.637 628.877 287.592 616.727L309.592 578.622Z" fill="white"/>
</clipPath>
<clipPath id="clip15_94_5712">
<path d="M354.124 603.916L392.23 625.916C380.079 646.96 353.169 654.171 332.124 642.021L354.124 603.916Z" fill="white"/>
</clipPath>
<clipPath id="clip16_94_5712">
<path d="M398.384 629.469L436.489 651.469C424.339 672.514 397.429 679.724 376.384 667.574L398.384 629.469Z" fill="white"/>
</clipPath>
<clipPath id="clip17_94_5712">
<path d="M284.312 622.622L322.417 644.622C310.267 665.667 283.357 672.877 262.312 660.727L284.312 622.622Z" fill="white"/>
</clipPath>
</defs>
</svg>
