<svg width="48" height="48" viewBox="0 0 48 48" fill="none" xmlns="http://www.w3.org/2000/svg">
<g clip-path="url(#clip0_115_2874)">
<path d="M37.1616 0H10.8384C4.85253 0 0 4.875 0 10.8886V37.1114C0 43.125 4.85253 48 10.8384 48H37.1616C43.1475 48 48 43.125 48 37.1114V10.8886C48 4.875 43.1475 0 37.1616 0Z" fill="white"/>
<path d="M30.3506 13.9722H33.7369L26.3391 22.4676L35.0419 34.0268H28.2272L22.89 27.0167L16.7822 34.0268H13.3941L21.3066 24.9409L12.9581 13.9722H19.9453L24.7697 20.3805L30.3506 13.9722ZM29.1619 31.9905H31.0388L18.9263 15.902H16.9125L29.1619 31.9905Z" fill="#142A79"/>
</g>
<defs>
<clipPath id="clip0_115_2874">
<rect width="48" height="48" fill="white"/>
</clipPath>
</defs>
</svg>
