<svg width="36" height="36" viewBox="0 0 36 36" fill="none" xmlns="http://www.w3.org/2000/svg">
<path d="M9.47098 12.2377H26.5073V12.6282C26.5073 16.8676 26.5081 21.1073 26.5069 25.3466C26.5065 26.78 25.742 27.5378 24.3024 27.5384C23.9443 27.5384 23.5862 27.5384 23.2527 27.5384C23.2527 29.0571 23.2691 30.5329 23.2467 32.0082C23.2327 32.9231 22.4419 33.6825 21.5355 33.7157C20.5622 33.7513 19.6733 33.0767 19.6388 32.1421C19.5833 30.6309 19.6238 29.1164 19.6238 27.5708H16.3581C16.3581 28.1711 16.3593 28.7721 16.3579 29.3728C16.356 30.258 16.3749 31.1438 16.3429 32.0279C16.3113 32.8932 15.631 33.6006 14.7919 33.7066C13.9016 33.8192 13.0688 33.3036 12.8045 32.4611C12.7461 32.2748 12.7117 32.0732 12.7104 31.8785C12.7022 30.6207 12.7042 29.3629 12.7081 28.105C12.7086 27.9324 12.7375 27.7599 12.758 27.5383C12.3343 27.5383 11.9189 27.5408 11.5033 27.5379C10.2736 27.5289 9.47332 26.7318 9.47245 25.498C9.46893 21.1889 9.47105 16.8794 9.47094 12.5701V12.2377H9.47098ZM26.5146 10.9803H9.45414C9.61265 8.03105 11.2883 6.19766 13.7789 4.89582C13.5252 4.5112 13.2786 4.13687 13.0314 3.76316C12.8514 3.4914 12.669 3.22147 12.49 2.94928C12.3637 2.75732 12.1615 2.54096 12.442 2.34943C12.7449 2.14253 12.8687 2.43195 13.0025 2.62924C13.3222 3.10135 13.6375 3.57659 13.9539 4.05096C14.3437 4.63517 14.3434 4.63503 15.0133 4.43975C17.1438 3.81881 19.2603 3.85407 21.3621 4.57653C21.4374 4.60251 21.5144 4.62334 21.613 4.6533C22.0488 4.00085 22.4807 3.35386 22.9125 2.7071C22.9643 2.62953 23.0149 2.55143 23.0682 2.47512C23.1899 2.30115 23.3445 2.20729 23.5388 2.35076C23.7149 2.48059 23.6849 2.64622 23.5738 2.81222C23.1985 3.37304 22.8254 3.93563 22.4519 4.49764C22.3685 4.62319 22.2865 4.74961 22.1909 4.89506C24.668 6.18532 26.3585 8.02224 26.5148 10.9803H26.5146ZM22.5484 7.66291C22.5537 7.16955 22.1405 6.74975 21.6444 6.74424C21.1437 6.73863 20.7358 7.14174 20.7318 7.64608C20.7277 8.15657 21.1187 8.55349 21.6284 8.5568C22.1358 8.55986 22.5433 8.16409 22.5484 7.66291ZM15.2355 7.64101C15.2289 7.13728 14.8177 6.73467 14.3191 6.7441C13.8241 6.75327 13.4112 7.1775 13.4199 7.66784C13.4288 8.16816 13.8396 8.5627 14.3455 8.5573C14.8541 8.55191 15.2421 8.15251 15.2355 7.64101ZM31.3683 17.9502C31.3681 19.2184 31.3716 20.4867 31.3673 21.7548C31.3634 22.8711 30.596 23.6771 29.5478 23.6764C28.5005 23.6758 27.7265 22.8643 27.7254 21.7549C27.7231 19.1836 27.7202 16.6124 27.7276 14.0411C27.7303 13.0946 28.4239 12.3347 29.3389 12.2394C30.2915 12.1403 31.1261 12.7312 31.3279 13.6606C31.3667 13.84 31.3662 14.0301 31.3667 14.2155C31.3699 15.4605 31.3683 16.7053 31.3682 17.9503L31.3683 17.9502ZM8.23719 17.9503C8.23719 19.2767 8.24982 20.6034 8.23255 21.9295C8.2219 22.7425 7.6495 23.4274 6.8703 23.6263C6.10852 23.8206 5.27306 23.5048 4.88315 22.8123C4.72418 22.5298 4.60916 22.1799 4.6065 21.8595C4.58455 19.2534 4.58729 16.647 4.59761 14.0408C4.60172 13.0136 5.41235 12.2256 6.42071 12.2256C7.43328 12.2257 8.22507 13.0018 8.23647 14.041C8.25104 15.3441 8.24007 16.6472 8.24007 17.9504C8.23906 17.9504 8.23813 17.9504 8.23709 17.9504H8.23719V17.9503Z" fill="#A4C639"/>
</svg>
