<svg width="28" height="28" viewBox="0 0 28 28" fill="none" xmlns="http://www.w3.org/2000/svg">
<g clip-path="url(#clip0_2033_144)">
<path d="M26.6904 16.718C27.2365 16.718 27.6348 17.2375 27.4888 17.7637C25.8455 23.6678 20.4294 28 14.0008 28C12.6464 28 11.3351 27.8075 10.0952 27.4473C9.34661 27.2298 9.29682 26.1841 10.0189 25.8887L10.482 25.6994H10.4836C11.5974 26.0347 12.7792 26.214 14.0025 26.214C19.5945 26.214 24.3085 22.4561 25.7575 17.3272C25.8588 16.9686 26.1808 16.718 26.5543 16.718H26.692H26.6904Z" fill="#1D1D1B"/>
<path d="M28 14.0008C28 14.0091 28 14.0191 28 14.0274C28 14.4805 27.6265 14.8457 27.1734 14.8457H27.0406C26.5808 14.8457 26.214 14.4689 26.214 14.0091C26.214 14.0058 26.214 14.0042 26.214 14.0008C26.214 10.462 24.7085 7.27346 22.3034 5.04097C21.9615 4.72394 21.9565 4.18614 22.2851 3.85583L22.3798 3.76122C22.6968 3.44419 23.2064 3.44087 23.5333 3.74628C26.2821 6.30411 28 9.9508 28 14.0008Z" fill="#1D1D1B"/>
<path d="M20.6186 2.8732L20.5191 2.97279C20.2634 3.22841 19.875 3.28484 19.553 3.12052C17.8865 2.26901 16.0009 1.786 13.9992 1.786C13.4182 1.786 12.8456 1.82583 12.2862 1.90551C12.0322 1.94036 11.7766 1.85239 11.5957 1.67147L11.4779 1.55362C11.0015 1.07724 11.2637 0.252297 11.931 0.152706C12.5983 0.0531152 13.297 0 13.9992 0C16.3147 0 18.499 0.561029 20.4211 1.5586C20.9141 1.81422 21.0087 2.47981 20.617 2.8732H20.6186Z" fill="#1D1D1B"/>
<path d="M1.786 14.0008C1.786 14.0008 1.786 14.0058 1.786 14.0091C1.786 14.4689 1.41917 14.8457 0.959393 14.8457H0.826605C0.373466 14.8457 0 14.4805 0 14.0274C0 14.0191 0 14.0091 0 14.0008C0 8.45859 3.22011 3.66992 7.89092 1.40091C8.20796 1.24654 8.58806 1.31128 8.8387 1.56025L8.93663 1.65819C9.33665 2.05821 9.2271 2.73875 8.71753 2.98275C4.6177 4.95631 1.786 9.14909 1.786 14.0008Z" fill="#1D1D1B"/>
<path d="M3.02425 20.0676L2.95288 20.2203C2.65742 20.8477 1.77106 20.8544 1.46233 20.2352C1.07061 19.4501 0.750256 18.6219 0.511238 17.7621C0.365171 17.2375 0.765195 16.7197 1.30963 16.7197H1.44905C1.82252 16.7197 2.14453 16.9703 2.24578 17.3288C2.44496 18.0343 2.70556 18.7148 3.02259 19.3638C3.13048 19.5862 3.12882 19.8452 3.02259 20.0692L3.02425 20.0676Z" fill="#1D1D1B"/>
<path d="M14.0008 4.46832C8.73579 4.46832 4.46666 8.73579 4.46666 14.0008C4.46666 16.0806 5.13392 18.006 6.26428 19.5729L4.57953 23.3757C4.23428 24.1525 5.00113 24.9575 5.79454 24.6521L10.4571 22.8528C11.5526 23.291 12.7493 23.5333 14.0008 23.5333C19.2642 23.5333 23.5333 19.2659 23.5333 14.0008C23.5333 8.73579 19.2642 4.46832 14.0008 4.46832ZM9.36321 14.7511C9.31342 14.9071 9.23375 15.0067 9.12254 15.0532C9.01133 15.098 8.83538 15.1212 8.59636 15.1212C8.35735 15.1212 8.17974 15.098 8.06853 15.0532C7.95732 15.0067 7.87765 14.9071 7.82951 14.7511C7.77972 14.5951 7.75482 14.3444 7.75482 13.9959C7.75482 13.6473 7.77972 13.4066 7.82951 13.2506C7.87765 13.0946 7.95732 12.995 8.06853 12.9485C8.17974 12.9037 8.35569 12.8804 8.59636 12.8804C8.83704 12.8804 9.01133 12.9037 9.12254 12.9485C9.23375 12.995 9.31342 13.0946 9.36321 13.2506C9.41135 13.4066 9.43625 13.6556 9.43625 13.9959C9.43625 14.3361 9.41135 14.5951 9.36321 14.7511ZM12.0937 15.4814C12.024 15.7885 11.9127 15.9877 11.7584 16.079C11.6024 16.1686 11.3584 16.2134 11.0231 16.2134C10.6878 16.2134 10.4438 16.1686 10.2878 16.079C10.1334 15.9877 10.0205 15.7885 9.95246 15.4814C9.88441 15.1743 9.85121 14.6781 9.85121 13.9925C9.85121 13.307 9.88441 12.8273 9.95246 12.5202C10.0205 12.2132 10.1334 12.014 10.2878 11.9244C10.4438 11.8331 10.6878 11.7883 11.0231 11.7883C11.3584 11.7883 11.6024 11.8331 11.7584 11.9244C11.9127 12.014 12.024 12.2132 12.0937 12.5202C12.1601 12.8273 12.1949 13.317 12.1949 13.9925C12.1949 14.6681 12.1601 15.1743 12.0937 15.4814ZM15.269 16.723C15.186 17.2857 15.0532 17.6508 14.8689 17.8168C14.683 17.9828 14.3909 18.0658 13.9909 18.0658C13.5909 18.0658 13.2971 17.9828 13.1112 17.8168C12.9269 17.6508 12.7925 17.2857 12.7111 16.723C12.6298 16.1586 12.59 15.2457 12.59 13.9842C12.59 12.7227 12.6298 11.843 12.7111 11.2803C12.7925 10.716 12.9269 10.3508 13.1112 10.1848C13.2971 10.0189 13.5892 9.93586 13.9909 9.93586C14.3926 9.93586 14.683 10.0189 14.8689 10.1848C15.0532 10.3508 15.186 10.716 15.269 11.2803C15.3503 11.843 15.3901 12.746 15.3901 13.9842C15.3901 15.2225 15.3503 16.1586 15.269 16.723ZM18.0475 15.4814C17.9795 15.7885 17.8666 15.9877 17.7123 16.079C17.5579 16.1686 17.3122 16.2134 16.9769 16.2134C16.6417 16.2134 16.3977 16.1686 16.2416 16.079C16.0873 15.9877 15.9761 15.7885 15.908 15.4814C15.8383 15.1743 15.8051 14.6781 15.8051 13.9925C15.8051 13.307 15.8383 12.8273 15.908 12.5202C15.9761 12.2132 16.0873 12.014 16.2416 11.9244C16.3977 11.8331 16.6417 11.7883 16.9769 11.7883C17.3122 11.7883 17.5579 11.8331 17.7123 11.9244C17.8666 12.014 17.9795 12.2132 18.0475 12.5202C18.1156 12.8273 18.1488 13.317 18.1488 13.9925C18.1488 14.6681 18.1156 15.1743 18.0475 15.4814ZM20.1722 14.7511C20.1224 14.9071 20.0427 15.0067 19.9315 15.0532C19.8203 15.098 19.6443 15.1212 19.4053 15.1212C19.1663 15.1212 18.9887 15.098 18.8775 15.0532C18.8227 15.0299 18.7746 14.9934 18.7347 14.9436C18.7148 14.9187 18.6965 14.8889 18.6799 14.8573C18.665 14.8258 18.6501 14.7893 18.6385 14.7511C18.6318 14.7312 18.6268 14.7112 18.6202 14.688C18.6152 14.6664 18.6102 14.6415 18.6053 14.6166C18.597 14.5652 18.5887 14.5087 18.582 14.4457C18.5704 14.3195 18.5638 14.1701 18.5638 13.9959C18.5638 13.8216 18.5704 13.6788 18.582 13.5543C18.5887 13.4913 18.597 13.4348 18.6053 13.385C18.6102 13.3601 18.6152 13.3352 18.6202 13.3137C18.6268 13.2904 18.6318 13.2705 18.6385 13.2506C18.6501 13.2124 18.665 13.1759 18.6799 13.1443C18.6965 13.1128 18.7148 13.0829 18.7347 13.058C18.7746 13.0082 18.8227 12.9717 18.8775 12.9485C18.9887 12.9037 19.1646 12.8804 19.4053 12.8804C19.646 12.8804 19.8203 12.9037 19.9315 12.9485C20.0427 12.995 20.1224 13.0946 20.1722 13.2506C20.2203 13.4066 20.2452 13.6556 20.2452 13.9959C20.2452 14.3361 20.2203 14.5951 20.1722 14.7511Z" fill="#1D1D1B"/>
</g>
<defs>
<clipPath id="clip0_2033_144">
<rect width="28" height="28" fill="white"/>
</clipPath>
</defs>
</svg>
