<svg width="86" height="28" viewBox="0 0 86 28" fill="none" xmlns="http://www.w3.org/2000/svg">
<path d="M18.582 14.4457C18.5886 14.5087 18.5969 14.5652 18.6052 14.6166C18.5953 14.5652 18.5886 14.5087 18.582 14.4457Z" fill="#1D1D1B"/>
<path d="M18.582 13.5543C18.5886 13.4913 18.5953 13.4348 18.6052 13.385C18.5969 13.4348 18.5886 13.4913 18.582 13.5543Z" fill="#1D1D1B"/>
<path d="M18.6385 14.7511C18.6501 14.7893 18.665 14.8258 18.6799 14.8573C18.6633 14.8258 18.6501 14.7893 18.6368 14.7511C18.6302 14.7312 18.6252 14.7112 18.6202 14.688C18.6268 14.7112 18.6318 14.7312 18.6385 14.7511Z" fill="#1D1D1B"/>
<path d="M18.6385 13.2506C18.6318 13.2705 18.6268 13.2904 18.6202 13.3137C18.6252 13.2904 18.6302 13.2705 18.6368 13.2506C18.6501 13.2124 18.6633 13.1759 18.6799 13.1443C18.665 13.1759 18.6501 13.2124 18.6385 13.2506Z" fill="#1D1D1B"/>
<path d="M26.6904 16.718C27.2365 16.718 27.6348 17.2375 27.4888 17.7637C25.8455 23.6678 20.4294 28 14.0008 28C12.6464 28 11.3351 27.8075 10.0952 27.4473C9.34661 27.2298 9.29682 26.1841 10.0189 25.8887L10.482 25.6994H10.4836C11.5974 26.0347 12.7792 26.214 14.0025 26.214C19.5945 26.214 24.3085 22.4561 25.7575 17.3272C25.8588 16.9686 26.1808 16.718 26.5543 16.718H26.692H26.6904Z" fill="#1D1D1B"/>
<path d="M28 14.0008C28 14.0091 28 14.0191 28 14.0274C28 14.4805 27.6265 14.8457 27.1734 14.8457H27.0406C26.5808 14.8457 26.214 14.4689 26.214 14.0091C26.214 14.0058 26.214 14.0042 26.214 14.0008C26.214 10.462 24.7085 7.27347 22.3034 5.04097C21.9615 4.72394 21.9565 4.18615 22.2851 3.85584L22.3798 3.76123C22.6968 3.4442 23.2064 3.44088 23.5333 3.74629C26.2821 6.30412 28 9.95081 28 14.0008Z" fill="#1D1D1B"/>
<path d="M20.6186 2.8732L20.5191 2.97279C20.2634 3.22841 19.875 3.28484 19.553 3.12052C17.8865 2.26901 16.0009 1.786 13.9992 1.786C13.4182 1.786 12.8456 1.82583 12.2862 1.90551C12.0322 1.94036 11.7766 1.85239 11.5957 1.67147L11.4779 1.55362C11.0015 1.07724 11.2637 0.252297 11.931 0.152706C12.5983 0.0531152 13.297 0 13.9992 0C16.3147 0 18.499 0.561029 20.4211 1.5586C20.9141 1.81422 21.0087 2.47982 20.617 2.8732H20.6186Z" fill="#1D1D1B"/>
<path d="M1.786 14.0008C1.786 14.0008 1.786 14.0058 1.786 14.0091C1.786 14.4689 1.41917 14.8457 0.959393 14.8457H0.826605C0.373466 14.8457 0 14.4805 0 14.0274C0 14.0191 0 14.0091 0 14.0008C0 8.45859 3.22011 3.66992 7.89092 1.40091C8.20795 1.24654 8.58806 1.31128 8.8387 1.56025L8.93663 1.65819C9.33665 2.05821 9.2271 2.73875 8.71753 2.98275C4.6177 4.95631 1.786 9.14909 1.786 14.0008Z" fill="#1D1D1B"/>
<path d="M3.02425 20.0676L2.95288 20.2203C2.65742 20.8477 1.77106 20.8544 1.46233 20.2352C1.07061 19.4501 0.750256 18.6219 0.511238 17.7621C0.365171 17.2375 0.765195 16.7197 1.30963 16.7197H1.44905C1.82252 16.7197 2.14453 16.9703 2.24578 17.3288C2.44496 18.0343 2.70556 18.7148 3.02259 19.3638C3.13048 19.5862 3.12882 19.8452 3.02259 20.0692L3.02425 20.0676Z" fill="#1D1D1B"/>
<path d="M14.0008 4.46832C8.73578 4.46832 4.46664 8.7358 4.46664 14.0008C4.46664 16.0806 5.1339 18.0061 6.26426 19.573L4.57951 23.3757C4.23427 24.1525 5.00112 24.9575 5.79452 24.6521L10.457 22.8528C11.5525 23.291 12.7493 23.5334 14.0008 23.5334C19.2642 23.5334 23.5333 19.2659 23.5333 14.0008C23.5333 8.7358 19.2642 4.46832 14.0008 4.46832ZM9.3632 14.7511C9.3134 14.9071 9.23373 15.0067 9.12252 15.0532C9.01131 15.098 8.83537 15.1212 8.59635 15.1212C8.35733 15.1212 8.17973 15.098 8.06852 15.0532C7.95731 15.0067 7.87763 14.9071 7.8295 14.7511C7.7797 14.5951 7.75481 14.3444 7.75481 13.9959C7.75481 13.6473 7.7797 13.4066 7.8295 13.2506C7.87763 13.0946 7.95731 12.995 8.06852 12.9485C8.17973 12.9037 8.35567 12.8804 8.59635 12.8804C8.83703 12.8804 9.01131 12.9037 9.12252 12.9485C9.23373 12.995 9.3134 13.0946 9.3632 13.2506C9.41134 13.4066 9.43623 13.6556 9.43623 13.9959C9.43623 14.3361 9.41134 14.5951 9.3632 14.7511ZM12.0937 15.4814C12.0239 15.7885 11.9127 15.9877 11.7584 16.079C11.6023 16.1686 11.3583 16.2134 11.023 16.2134C10.6878 16.2134 10.4438 16.1686 10.2877 16.079C10.1334 15.9877 10.0205 15.7885 9.95245 15.4814C9.88439 15.1744 9.8512 14.6781 9.8512 13.9925C9.8512 13.307 9.88439 12.8273 9.95245 12.5203C10.0205 12.2132 10.1334 12.014 10.2877 11.9244C10.4438 11.8331 10.6878 11.7883 11.023 11.7883C11.3583 11.7883 11.6023 11.8331 11.7584 11.9244C11.9127 12.014 12.0239 12.2132 12.0937 12.5203C12.16 12.8273 12.1949 13.317 12.1949 13.9925C12.1949 14.6681 12.16 15.1744 12.0937 15.4814ZM15.2689 16.723C15.186 17.2857 15.0532 17.6508 14.8689 17.8168C14.683 17.9828 14.3909 18.0658 13.9909 18.0658C13.5908 18.0658 13.297 17.9828 13.1111 17.8168C12.9269 17.6508 12.7924 17.2857 12.7111 16.723C12.6298 16.1586 12.5899 15.2457 12.5899 13.9842C12.5899 12.7228 12.6298 11.843 12.7111 11.2803C12.7924 10.716 12.9269 10.3508 13.1111 10.1848C13.297 10.0189 13.5892 9.93587 13.9909 9.93587C14.3925 9.93587 14.683 10.0189 14.8689 10.1848C15.0532 10.3508 15.186 10.716 15.2689 11.2803C15.3503 11.843 15.3901 12.746 15.3901 13.9842C15.3901 15.2225 15.3503 16.1586 15.2689 16.723ZM18.0475 15.4814C17.9795 15.7885 17.8666 15.9877 17.7122 16.079C17.5579 16.1686 17.3122 16.2134 16.9769 16.2134C16.6416 16.2134 16.3976 16.1686 16.2416 16.079C16.0872 15.9877 15.976 15.7885 15.908 15.4814C15.8383 15.1744 15.8051 14.6781 15.8051 13.9925C15.8051 13.307 15.8383 12.8273 15.908 12.5203C15.976 12.2132 16.0872 12.014 16.2416 11.9244C16.3976 11.8331 16.6416 11.7883 16.9769 11.7883C17.3122 11.7883 17.5579 11.8331 17.7122 11.9244C17.8666 12.014 17.9795 12.2132 18.0475 12.5203C18.1156 12.8273 18.1488 13.317 18.1488 13.9925C18.1488 14.6681 18.1156 15.1744 18.0475 15.4814ZM20.1721 14.7511C20.1223 14.9071 20.0427 15.0067 19.9315 15.0532C19.8202 15.098 19.6443 15.1212 19.4053 15.1212C19.1663 15.1212 18.9887 15.098 18.8775 15.0532C18.8227 15.0299 18.7745 14.9934 18.7347 14.9436C18.7148 14.9187 18.6965 14.8889 18.6799 14.8573C18.665 14.8258 18.6501 14.7893 18.6384 14.7511C18.6318 14.7312 18.6268 14.7113 18.6202 14.688C18.6152 14.6664 18.6102 14.6415 18.6052 14.6166C18.5969 14.5652 18.5886 14.5088 18.582 14.4457C18.5704 14.3195 18.5637 14.1701 18.5637 13.9959C18.5637 13.8216 18.5704 13.6788 18.582 13.5543C18.5886 13.4913 18.5969 13.4348 18.6052 13.385C18.6102 13.3601 18.6152 13.3352 18.6202 13.3137C18.6268 13.2904 18.6318 13.2705 18.6384 13.2506C18.6501 13.2124 18.665 13.1759 18.6799 13.1444C18.6965 13.1128 18.7148 13.0829 18.7347 13.058C18.7745 13.0082 18.8227 12.9717 18.8775 12.9485C18.9887 12.9037 19.1646 12.8804 19.4053 12.8804C19.646 12.8804 19.8202 12.9037 19.9315 12.9485C20.0427 12.995 20.1223 13.0946 20.1721 13.2506C20.2203 13.4066 20.2452 13.6556 20.2452 13.9959C20.2452 14.3361 20.2203 14.5951 20.1721 14.7511Z" fill="#1D1D1B"/>
<path d="M34.7159 20.7315C33.5092 19.8468 32.6826 18.6384 32.2411 17.1097C31.9589 16.1636 31.8178 15.1378 31.8178 14.0307C31.8178 12.8439 31.9589 11.7766 32.2411 10.8322C32.7042 9.34328 33.5391 8.1764 34.7458 7.33154C35.9525 6.48668 37.4015 6.06342 39.0913 6.06342C40.781 6.06342 42.1487 6.4817 43.3172 7.3166C44.4841 8.15151 45.3091 9.3134 45.7921 10.8023C46.1141 11.8082 46.2751 12.8655 46.2751 13.9709C46.2751 15.0764 46.134 16.074 45.8518 17.0201C45.4087 18.5903 44.5887 19.8219 43.3919 20.7166C42.1952 21.6129 40.7511 22.0594 39.0614 22.0594C37.3717 22.0594 35.9226 21.6179 34.7159 20.7315ZM40.7511 17.8035C41.2142 17.4018 41.5462 16.8475 41.747 16.1437C41.908 15.4997 41.9877 14.7959 41.9877 14.0307C41.9877 13.1858 41.9064 12.4721 41.747 11.8878C41.5246 11.204 41.1843 10.6712 40.7212 10.2877C40.2581 9.90597 39.6955 9.71508 39.0315 9.71508C38.3676 9.71508 37.7783 9.90597 37.3268 10.2877C36.8737 10.6695 36.5467 11.204 36.3459 11.8878C36.1849 12.3708 36.1035 13.0846 36.1035 14.0307C36.1035 14.9768 36.1733 15.6407 36.3143 16.1437C36.5152 16.8491 36.8521 17.4018 37.3252 17.8035C37.7982 18.2069 38.3759 18.4077 39.0614 18.4077C39.7469 18.4077 40.288 18.2069 40.7511 17.8035Z" fill="#1D1D1B"/>
<path d="M47.276 21.7125C47.2046 21.6428 47.1698 21.5565 47.1698 21.4552V18.2251C47.1698 18.0641 47.2295 17.9131 47.3507 17.772L54.1411 10.3176C54.2424 10.1964 54.2208 10.1367 54.0814 10.1367H47.7125C47.6113 10.1367 47.5266 10.1018 47.4552 10.0305C47.3839 9.96075 47.349 9.87444 47.349 9.77319V6.66429C47.349 6.56304 47.3839 6.47839 47.4552 6.40701C47.525 6.3373 47.6113 6.30078 47.7125 6.30078H58.9995C59.1007 6.30078 59.1854 6.33564 59.2568 6.40701C59.3265 6.47839 59.363 6.56304 59.363 6.66429V9.86282C59.363 10.0039 59.3033 10.155 59.1821 10.316L52.1808 17.7703C52.0995 17.8915 52.1211 17.9513 52.2406 17.9513H59.1522C59.2535 17.9513 59.3381 17.9861 59.4095 18.0575C59.4792 18.1289 59.5157 18.2135 59.5157 18.3148V21.4535C59.5157 21.5548 59.4809 21.6395 59.4095 21.7108C59.3381 21.7822 59.2535 21.8171 59.1522 21.8171H47.5333C47.432 21.8171 47.3474 21.7822 47.276 21.7108V21.7125Z" fill="#1D1D1B"/>
<path d="M74.7465 15.0283C74.7266 15.2706 74.5955 15.3901 74.3548 15.3901H65.0281C64.9069 15.3901 64.8671 15.4399 64.9069 15.5412C64.9667 15.9445 65.0779 16.3462 65.2389 16.7479C65.7617 17.8749 66.8274 18.4376 68.4374 18.4376C69.7254 18.4177 70.7413 17.8948 71.4866 16.869C71.5662 16.7479 71.6575 16.6881 71.7588 16.6881C71.8185 16.6881 71.8899 16.7279 71.9696 16.8093L74.1423 18.9521C74.2436 19.0534 74.2934 19.143 74.2934 19.2244C74.2934 19.2642 74.2535 19.3455 74.1722 19.465C73.5082 20.29 72.6534 20.929 71.6061 21.3822C70.5604 21.8353 69.4134 22.061 68.1652 22.061C66.434 22.061 64.97 21.6693 63.7732 20.8842C62.5765 20.0991 61.715 19.0036 61.1922 17.5944C60.7689 16.5885 60.5581 15.2706 60.5581 13.6406C60.5581 12.5335 60.7091 11.5575 61.0112 10.7127C61.4743 9.28352 62.2843 8.14653 63.4413 7.30166C64.5982 6.4568 65.9709 6.03354 67.561 6.03354C69.5727 6.03354 71.1878 6.61781 72.4045 7.78468C73.6211 8.95155 74.3614 10.5118 74.622 12.4621C74.7432 13.2273 74.783 14.0821 74.7432 15.0283H74.7465ZM65.0895 11.4961C65.0082 11.7584 64.9384 12.0804 64.8787 12.4621C64.8787 12.5634 64.9285 12.6132 65.0297 12.6132H70.2516C70.3728 12.6132 70.4126 12.5634 70.3728 12.4621C70.2715 11.8795 70.2217 11.5974 70.2217 11.6173C70.0408 11.0131 69.7238 10.5467 69.2707 10.2147C68.8175 9.88273 68.2598 9.71674 67.5959 9.71674C66.3277 9.71674 65.4928 10.311 65.0912 11.4978L65.0895 11.4961Z" fill="#1D1D1B"/>
<path d="M85.8144 6.51654C85.9754 6.59787 86.0351 6.74726 85.9953 6.96968L85.3612 10.4105C85.3413 10.6529 85.2002 10.7226 84.938 10.6213C84.6359 10.5201 84.284 10.4703 83.8823 10.4703C83.7213 10.4703 83.5005 10.4902 83.2184 10.5301C82.4947 10.5898 81.8805 10.857 81.3776 11.3301C80.8747 11.8032 80.6224 12.4322 80.6224 13.2157V21.4552C80.6224 21.5564 80.5875 21.6411 80.5161 21.7125C80.4447 21.7838 80.3601 21.8187 80.2588 21.8187H76.7283C76.6271 21.8187 76.5424 21.7838 76.4711 21.7125C76.3997 21.6427 76.3648 21.5564 76.3648 21.4552V6.66759C76.3648 6.56634 76.3997 6.48168 76.4711 6.41031C76.5408 6.3406 76.6271 6.30408 76.7283 6.30408H80.2588C80.3601 6.30408 80.4447 6.33894 80.5161 6.41031C80.5858 6.48168 80.6224 6.56634 80.6224 6.66759V7.81454C80.6224 7.8743 80.6423 7.9158 80.6821 7.93571C80.7219 7.95563 80.7518 7.94567 80.7734 7.90584C81.5983 6.69913 82.7055 6.09494 84.0931 6.09494C84.8168 6.09494 85.3911 6.23603 85.8127 6.5182L85.8144 6.51654Z" fill="#1D1D1B"/>
</svg>
