<svg width="288" height="288" viewBox="0 0 288 288" fill="none" xmlns="http://www.w3.org/2000/svg">
<path d="M156 252V228H180V252H156ZM132 228V168H156V228H132ZM228 192V144H252V192H228ZM204 144V120H228V144H204ZM60 168V144H84V168H60ZM36 144V120H60V144H36ZM144 60V36H168V60H144ZM54 90H90V54H54V90ZM36 108V36H108V108H36ZM54 234H90V198H54V234ZM36 252V180H108V252H36ZM198 90H234V54H198V90ZM180 108V36H252V108H180ZM204 252V216H180V192H228V228H252V252H204ZM156 168V144H204V168H156ZM108 168V144H84V120H156V144H132V168H108ZM120 108V60H144V84H168V108H120ZM63 81V63H81V81H63ZM63 225V207H81V225H63ZM207 81V63H225V81H207Z" fill="black"/>
</svg>
